<?xml version="1.0" standalone="no"?>
<!DOCTYPE svg PUBLIC "-//W3C//DTD SVG 20010904//EN"
 "http://www.w3.org/TR/2001/REC-SVG-20010904/DTD/svg10.dtd">
<svg version="1.0" xmlns="http://www.w3.org/2000/svg"
 width="735.000000pt" height="735.000000pt" viewBox="0 0 735.000000 735.000000"
 preserveAspectRatio="xMidYMid meet">
<metadata>
Created by potrace 1.14, written by Peter Selinger 2001-2017
</metadata>
<g transform="translate(0.000000,735.000000) scale(0.100000,-0.100000)"
fill="#000000" stroke="none">
<path d="M2300 5870 c0 -6 -11 -8 -97 -11 -29 -1 -51 -5 -49 -8 2 -3 -26 -7
-62 -8 -37 -2 -75 -3 -85 -4 -9 0 -15 -4 -13 -8 7 -10 -25 -7 -43 4 -10 5 -12
4 -7 -3 5 -8 0 -12 -13 -12 -32 0 -35 -1 -48 -12 -9 -8 -13 -7 -13 3 0 11 -2
11 -10 -1 -5 -8 -10 -11 -10 -5 0 5 -5 4 -12 -3 -16 -16 -31 -15 -22 1 4 6 -2
4 -13 -6 -11 -10 -24 -17 -29 -16 -25 4 -64 -2 -60 -10 3 -5 0 -9 -7 -8 -34 1
-58 -4 -53 -11 2 -4 -4 -8 -15 -8 -10 0 -19 5 -19 11 0 5 -4 4 -9 -3 -4 -7
-16 -14 -25 -16 -10 -1 -21 -8 -26 -15 -5 -9 -9 -10 -14 -2 -5 8 -11 7 -21 -3
-8 -8 -23 -13 -32 -12 -10 2 -23 -4 -30 -13 -9 -12 -12 -12 -13 -3 0 10 -4 9
-16 -2 -8 -9 -20 -14 -25 -11 -5 4 -9 1 -9 -5 0 -6 -4 -9 -9 -5 -5 3 -13 1
-16 -5 -4 -6 -16 -8 -28 -5 -17 5 -19 4 -7 -4 13 -9 12 -11 -5 -12 -11 -1 -23
-1 -27 0 -5 0 -8 -4 -8 -11 0 -6 -3 -8 -7 -5 -3 4 -15 -1 -26 -10 -15 -13 -18
-14 -12 -3 7 12 6 13 -6 4 -29 -23 -129 -72 -123 -61 3 7 -4 1 -16 -13 -12
-14 -19 -18 -15 -10 5 12 4 12 -7 -1 -7 -9 -21 -15 -30 -13 -10 1 -16 -1 -15
-4 1 -4 -1 -7 -4 -7 -4 0 -16 -8 -27 -18 -12 -11 -26 -16 -33 -11 -8 4 -10 3
-5 -4 4 -7 2 -12 -4 -12 -6 0 -8 -5 -4 -12 6 -10 5 -10 -7 -1 -12 10 -19 8
-33 -8 -9 -12 -24 -18 -32 -15 -9 3 -12 1 -9 -4 3 -6 1 -10 -5 -10 -6 0 -8 -5
-4 -12 5 -8 0 -7 -11 2 -10 8 -16 10 -12 4 4 -7 0 -15 -9 -18 -8 -3 -13 -10
-9 -15 3 -6 -3 -8 -14 -6 -11 2 -22 -3 -25 -11 -3 -9 -11 -12 -16 -9 -6 4 -9
1 -8 -7 2 -7 -3 -12 -9 -11 -7 2 -13 -2 -13 -7 0 -6 -6 -10 -14 -10 -7 0 -19
-7 -26 -15 -7 -8 -16 -13 -20 -10 -4 3 -7 -3 -6 -13 1 -12 -6 -17 -21 -16 -19
0 -21 -2 -10 -15 9 -12 9 -13 -1 -7 -7 4 -12 2 -12 -4 0 -6 -4 -8 -10 -5 -9 6
-14 -8 -11 -28 1 -4 -8 -3 -20 4 -14 7 -19 7 -15 0 4 -6 -4 -20 -18 -32 -14
-12 -22 -27 -19 -32 4 -6 0 -8 -10 -4 -9 3 -16 2 -14 -2 1 -5 -16 -26 -38 -47
-21 -22 -35 -33 -31 -25 6 10 5 12 -3 7 -6 -4 -9 -11 -6 -16 3 -5 -8 -18 -25
-30 -17 -12 -28 -25 -25 -30 3 -4 -2 -11 -11 -14 -9 -3 -14 -13 -11 -21 4 -10
1 -12 -10 -8 -10 4 -14 2 -10 -4 4 -6 0 -14 -9 -17 -9 -4 -14 -13 -10 -22 3
-8 2 -12 -3 -9 -5 3 -12 1 -16 -5 -3 -5 0 -10 7 -10 10 0 9 -3 -2 -9 -8 -6
-19 -7 -25 -3 -5 3 -3 -3 5 -13 9 -11 10 -16 3 -11 -8 4 -13 2 -13 -4 0 -6 -5
-8 -12 -4 -7 5 -9 2 -5 -9 3 -9 0 -18 -9 -21 -9 -3 -13 -10 -10 -15 3 -5 -1
-12 -10 -15 -9 -4 -14 -13 -10 -22 3 -8 2 -13 -3 -10 -14 9 -42 -30 -35 -48 4
-11 1 -16 -12 -16 -16 0 -17 -2 -4 -10 14 -9 6 -15 -15 -10 -5 1 -7 -2 -3 -6
4 -4 3 -13 -3 -21 -9 -10 -8 -13 0 -13 7 0 9 -5 6 -10 -4 -6 -10 -8 -15 -5
-13 8 -19 -32 -6 -46 8 -9 8 -10 -1 -5 -18 10 -39 -4 -22 -15 11 -6 8 -14 -11
-35 -14 -15 -20 -24 -13 -21 7 5 9 0 6 -12 -3 -13 -10 -18 -21 -13 -15 5 -16
4 -2 -13 9 -11 10 -16 3 -11 -7 4 -13 3 -13 -3 0 -5 6 -12 13 -14 7 -4 6 -6
-5 -6 -16 -1 -19 -16 -5 -38 9 -14 -8 -27 -23 -18 -6 3 -7 -1 -4 -9 4 -11 0
-16 -12 -17 -15 0 -13 -3 6 -10 23 -10 24 -11 8 -23 -10 -7 -14 -17 -10 -21 4
-5 -1 -5 -11 -2 -13 5 -16 3 -10 -6 10 -17 15 -49 6 -44 -5 3 -9 -6 -9 -19 -1
-13 2 -21 7 -18 13 8 11 -10 -3 -25 -11 -11 -10 -13 2 -7 9 5 8 2 -2 -7 -21
-16 -24 -32 -5 -21 9 6 9 4 2 -7 -16 -21 -12 -352 3 -357 10 -3 10 -7 1 -18
-8 -10 -9 -18 0 -27 6 -8 8 -17 4 -21 -11 -10 -12 -37 -2 -30 5 3 6 10 3 16
-4 7 -2 8 4 4 6 -4 8 -14 5 -22 -3 -9 0 -20 8 -25 12 -7 12 -9 -1 -9 -13 0
-13 -1 0 -11 11 -8 12 -12 2 -16 -6 -2 -9 -9 -6 -14 4 -6 11 -6 19 1 10 8 13
5 11 -14 0 -13 -4 -22 -8 -19 -18 10 -6 -14 12 -27 14 -10 16 -16 7 -22 -9 -6
-8 -8 3 -8 13 0 13 -1 0 -10 -10 -6 -11 -10 -2 -10 6 0 12 -7 12 -15 0 -8 5
-15 11 -15 5 0 7 -5 4 -10 -4 -6 4 -19 17 -30 13 -11 19 -19 13 -18 -5 2 -10
-1 -10 -7 0 -5 4 -9 8 -7 5 1 5 -7 2 -19 -5 -15 -4 -19 4 -15 6 4 11 0 11 -9
0 -10 5 -14 13 -10 6 4 3 -1 -7 -9 -20 -16 -13 -21 24 -17 12 2 12 0 2 -7 -21
-14 2 -56 23 -44 6 2 5 -1 -2 -8 -10 -11 -8 -17 9 -32 12 -10 17 -18 12 -19
-5 0 1 -4 13 -9 15 -6 21 -15 17 -25 -3 -8 -1 -15 5 -15 6 0 11 -9 11 -20 0
-11 7 -20 16 -20 8 0 12 -5 9 -10 -3 -5 -1 -10 4 -10 6 0 10 -3 10 -7 -3 -20
2 -34 11 -28 5 3 10 0 10 -8 0 -8 10 -19 23 -26 18 -9 18 -11 2 -6 -19 5 -19
4 -2 -9 9 -7 17 -18 17 -25 0 -6 6 -11 14 -11 8 0 18 -9 21 -20 4 -11 11 -17
17 -14 8 5 9 1 4 -12 -4 -10 -4 -15 0 -11 12 12 33 -13 27 -31 -6 -15 -4 -15
9 -4 13 10 18 10 24 1 5 -8 3 -9 -6 -4 -9 5 -11 4 -6 -3 4 -7 14 -12 23 -12 9
0 13 -6 9 -15 -3 -8 -2 -14 2 -13 10 4 61 -50 54 -56 -3 -3 2 -6 12 -6 11 0
15 -4 10 -12 -5 -8 0 -7 11 2 17 14 18 13 13 -8 -5 -19 -4 -21 7 -12 11 9 13
6 11 -15 -2 -14 1 -28 7 -32 6 -3 7 -1 3 5 -4 7 -2 12 3 12 6 0 11 -9 11 -20
0 -11 5 -20 10 -20 6 0 10 -5 10 -11 0 -5 -4 -8 -9 -5 -5 3 -11 -1 -15 -9 -3
-8 -1 -17 5 -21 6 -4 4 -13 -7 -26 -14 -15 -15 -21 -5 -27 10 -6 9 -12 -4 -25
-10 -9 -15 -20 -11 -23 3 -3 0 -13 -7 -21 -8 -11 -8 -14 0 -9 13 8 12 -18 -2
-30 -4 -5 -4 -1 0 7 8 13 7 13 -9 1 -13 -11 -14 -16 -4 -22 7 -5 9 -9 4 -9 -5
0 -3 -7 4 -15 11 -13 10 -14 -3 -10 -8 4 -18 1 -23 -6 -5 -8 -3 -10 7 -4 11 6
11 5 2 -5 -6 -7 -9 -19 -6 -28 5 -11 3 -13 -8 -7 -11 7 -12 6 -3 -6 5 -8 9
-20 8 -26 -1 -7 -2 -17 -3 -23 0 -5 -6 -10 -12 -10 -5 0 -7 5 -3 12 5 7 3 8
-5 3 -9 -5 -10 -10 -2 -18 14 -14 15 -50 1 -42 -6 3 -7 -1 -4 -9 4 -9 1 -16
-6 -16 -9 0 -9 -4 1 -17 10 -11 10 -14 1 -9 -13 8 -12 -19 2 -42 7 -12 4 -12
-15 -1 -22 11 -23 11 -10 -4 11 -14 11 -17 0 -17 -9 0 -10 -3 -4 -8 6 -4 11
-13 13 -21 3 -12 1 -12 -14 0 -16 13 -16 12 -6 -8 9 -16 9 -24 0 -29 -7 -5 -8
-3 -3 6 5 8 4 11 -3 6 -6 -3 -9 -15 -7 -26 2 -11 -1 -22 -6 -25 -6 -4 -6 -13
0 -22 6 -12 3 -22 -13 -36 -12 -11 -15 -17 -6 -14 10 3 15 -3 15 -19 0 -13 -3
-24 -7 -24 -4 0 -5 -6 -2 -14 3 -8 0 -17 -7 -22 -8 -4 -10 -3 -5 4 5 8 2 10
-9 6 -14 -6 -14 -8 2 -21 10 -8 12 -12 5 -8 -6 3 -12 1 -12 -4 0 -6 8 -11 17
-11 15 0 14 -2 -3 -15 -10 -8 -15 -15 -10 -15 6 0 1 -7 -10 -16 -10 -8 -14
-13 -7 -10 6 4 15 2 18 -4 4 -6 3 -10 -2 -9 -28 5 -36 -2 -17 -16 12 -9 14
-14 6 -15 -7 0 -11 -4 -8 -9 3 -5 -1 -11 -9 -15 -11 -4 -13 -12 -7 -28 4 -13
7 -38 6 -55 -1 -18 2 -33 7 -33 5 0 9 -11 9 -24 0 -14 5 -28 10 -31 6 -4 8
-11 5 -16 -3 -5 1 -6 9 -3 9 4 18 -1 22 -10 3 -9 12 -16 19 -16 7 0 15 -5 17
-11 4 -12 158 -19 158 -7 0 4 20 17 45 28 24 11 48 26 52 33 10 15 103 63 116
59 5 -1 6 2 3 7 -5 7 56 45 76 46 3 0 10 4 15 9 5 6 2 6 -7 1 -13 -8 -13 -6
-1 8 7 9 17 14 22 11 5 -3 9 0 9 7 0 7 3 9 6 6 11 -10 45 13 38 25 -4 7 -3 8
4 4 7 -4 20 -2 29 3 10 6 14 11 10 11 -4 0 -2 6 5 14 7 8 17 12 21 9 4 -3 17
5 28 18 10 12 19 19 19 16 0 -4 18 3 40 14 22 12 37 25 34 30 -3 5 2 6 10 3
11 -4 16 0 16 12 0 9 3 14 7 11 3 -4 11 -2 18 3 6 5 22 11 36 14 13 2 23 9 22
15 -2 6 2 11 8 11 5 0 7 6 3 13 -5 8 -2 8 9 -2 11 -8 17 -9 17 -2 0 6 11 13
25 17 13 3 30 13 37 22 12 16 11 16 -7 2 -19 -14 -19 -14 -6 2 7 10 17 16 21
13 5 -3 11 -1 15 5 4 6 11 7 17 4 6 -4 8 -2 5 3 -8 13 20 26 35 16 6 -3 8 -1
4 5 -3 6 3 13 14 17 11 3 20 11 20 16 0 5 3 8 8 8 20 -3 32 2 29 14 -1 6 4 11
11 10 6 -2 12 2 12 8 0 5 5 7 10 4 6 -3 10 -1 10 6 0 7 3 10 6 6 4 -3 14 2 23
11 9 10 12 12 7 5 -6 -10 -4 -12 8 -7 9 3 16 13 16 21 0 8 4 12 9 8 5 -3 16 2
24 10 12 11 17 12 20 2 4 -9 6 -8 6 2 1 11 4 11 18 0 15 -12 16 -12 8 1 -8 13
-6 13 8 2 9 -8 21 -11 27 -7 5 3 10 2 10 -4 0 -6 14 -9 30 -7 17 2 30 0 30 -4
0 -5 14 -7 30 -6 17 1 30 -3 30 -8 0 -6 26 -12 58 -14 93 -5 112 -7 112 -12 0
-3 12 -5 28 -6 59 -1 132 -9 132 -14 0 -3 11 -5 25 -5 14 0 25 4 25 9 0 5 6 4
13 -3 10 -8 17 -7 26 2 7 7 14 8 19 2 9 -13 52 -15 52 -3 0 5 6 6 12 2 18 -11
48 -12 48 -2 0 5 8 4 18 -1 10 -5 24 -6 32 -1 8 5 21 5 30 0 9 -5 22 -5 30 0
8 5 18 6 23 3 15 -9 75 -10 88 -2 7 4 21 3 31 -2 12 -7 18 -6 18 1 0 8 6 8 20
0 15 -8 20 -8 20 1 0 8 4 9 13 0 10 -8 17 -7 25 1 8 8 15 8 27 -2 8 -7 15 -8
15 -3 0 10 14 13 73 13 20 0 37 4 37 8 0 5 7 9 15 9 8 0 15 -4 15 -9 0 -5 4
-6 10 -3 10 6 62 15 118 19 18 2 35 6 38 9 4 4 16 2 27 -4 15 -9 18 -8 12 1
-6 10 -1 12 18 8 15 -3 24 -2 22 2 -6 10 24 22 36 14 5 -3 9 0 9 6 0 6 5 8 11
4 8 -4 8 0 0 15 -7 11 -21 21 -31 21 -11 0 -25 9 -32 19 -6 10 -18 17 -25 14
-7 -3 -13 0 -13 6 0 6 -6 10 -12 8 -7 -1 -12 3 -11 10 2 8 -4 10 -14 6 -11 -5
-14 -3 -8 6 5 10 2 11 -13 7 -13 -5 -22 -1 -26 10 -5 13 -9 14 -21 4 -12 -10
-15 -9 -15 4 0 10 -5 14 -10 11 -6 -3 -10 -1 -10 5 0 6 -4 8 -10 5 -5 -3 -10
-1 -10 5 0 6 -4 9 -9 6 -4 -3 -21 5 -37 19 -15 13 -31 22 -36 19 -4 -3 -5 2
-2 11 4 9 3 15 -2 14 -16 -3 -74 23 -74 33 0 6 -7 8 -15 4 -8 -3 -15 -1 -15 4
0 5 -10 14 -21 21 -17 9 -20 8 -13 -3 6 -10 5 -11 -7 -2 -15 12 -132 17 -125
5 7 -10 -26 -7 -43 4 -10 5 -12 4 -7 -3 8 -13 -20 -12 -40 1 -6 3 -14 3 -18
-1 -11 -11 -106 -9 -106 3 0 7 -3 7 -8 0 -8 -11 -52 -15 -52 -5 0 4 -17 6 -37
6 -21 -1 -41 3 -45 9 -5 6 -8 6 -8 -1 0 -8 -11 -9 -35 -4 -19 4 -35 5 -35 2 0
-3 -5 -1 -12 6 -8 8 -15 9 -25 1 -9 -8 -13 -8 -13 0 0 7 -22 11 -57 11 -32 0
-65 4 -73 10 -9 5 -17 5 -20 0 -3 -5 -16 -4 -30 3 -14 7 -37 12 -52 10 -16 -1
-28 2 -28 6 0 4 -10 8 -22 9 -54 3 -69 8 -78 22 -7 11 -10 11 -10 2 0 -9 -5
-10 -19 -3 -10 6 -21 7 -25 4 -3 -3 -6 -2 -6 4 0 6 -13 9 -30 8 -16 -1 -30 1
-30 5 0 7 -37 5 -95 -5 -11 -2 -26 -4 -33 -4 -7 -1 -10 -6 -6 -13 5 -8 2 -9
-9 -5 -10 3 -17 2 -17 -3 0 -6 -7 -10 -15 -10 -7 0 -19 -8 -24 -18 -6 -9 -11
-13 -11 -9 0 4 -6 2 -14 -5 -8 -7 -11 -17 -8 -23 3 -5 -3 -3 -13 5 -10 8 -16
10 -12 3 4 -7 -1 -14 -13 -18 -11 -4 -17 -11 -14 -17 5 -7 2 -9 -8 -6 -8 4
-20 -3 -27 -14 -11 -17 -15 -18 -22 -7 -7 11 -9 11 -9 -3 0 -16 -11 -23 -32
-19 -5 0 -8 -7 -8 -17 0 -14 -2 -15 -10 -2 -7 12 -12 12 -29 -4 -11 -10 -18
-23 -14 -29 3 -6 1 -7 -6 -3 -6 4 -18 2 -26 -4 -8 -6 -19 -9 -24 -6 -6 4 -8
-2 -6 -14 2 -11 1 -19 -3 -18 -18 3 -71 -25 -65 -35 4 -6 0 -8 -10 -4 -10 3
-17 2 -17 -3 0 -6 -5 -10 -11 -10 -18 0 -79 -46 -71 -55 4 -4 -5 -5 -21 -3
-15 3 -30 1 -34 -5 -3 -6 -1 -7 5 -3 17 10 15 -3 -3 -21 -9 -8 -19 -13 -22 -9
-9 8 -34 -14 -27 -25 3 -5 4 -9 2 -9 -2 0 -17 -4 -34 -9 -20 -5 -37 -5 -45 1
-11 8 -10 9 4 4 16 -5 16 -4 0 22 -17 26 -17 27 1 12 18 -14 19 -14 7 8 -9 17
-9 22 1 22 9 0 9 3 -2 11 -12 9 -10 10 8 6 17 -4 21 -2 14 6 -13 17 -22 58
-11 51 5 -3 9 0 9 6 0 6 5 8 11 4 8 -4 8 0 0 15 -7 13 -8 21 -2 21 6 0 8 7 5
15 -4 9 0 15 7 15 11 0 11 3 -1 10 -13 9 -13 10 0 11 8 1 19 1 23 0 5 -1 6 3
2 9 -3 6 -10 8 -14 6 -3 -3 -7 4 -7 14 0 10 3 17 7 14 4 -2 9 3 13 11 3 8 0
17 -6 21 -7 5 -8 2 -3 -6 5 -9 4 -11 -4 -6 -9 6 -9 11 0 22 13 16 23 19 14 4
-4 -6 1 -7 11 -3 11 4 13 8 6 11 -16 5 -15 45 0 60 10 10 10 15 -1 21 -11 7
-9 10 8 16 12 3 19 10 16 15 -3 5 -13 7 -23 4 -15 -5 -15 -4 1 6 14 9 16 15 6
26 -10 12 -9 13 4 9 12 -5 15 1 13 29 -1 19 3 34 9 33 5 -1 9 4 7 11 -1 6 2
12 8 12 6 0 6 10 -1 27 -7 20 -7 29 1 31 7 3 5 12 -7 25 -16 19 -16 20 0 8 18
-14 22 -5 8 18 -5 7 -5 26 -1 42 6 21 5 26 -5 23 -7 -3 -16 0 -21 7 -4 7 -3
10 4 5 6 -3 13 -2 17 4 3 5 -1 10 -10 10 -11 0 -15 5 -12 14 4 10 0 13 -14 11
-18 -4 -19 -2 -8 11 7 8 8 14 3 13 -22 -4 -35 2 -28 13 5 8 2 9 -10 5 -10 -4
-15 -3 -11 3 3 6 1 10 -5 10 -6 0 -9 4 -6 8 2 4 -5 9 -16 9 -22 2 -40 21 -32
34 2 4 -3 10 -12 13 -10 4 -13 2 -8 -7 4 -6 -3 -2 -15 11 -12 12 -19 27 -16
32 4 6 -1 7 -11 3 -13 -5 -15 -3 -9 7 6 10 4 12 -9 7 -9 -4 -14 -3 -11 2 3 5
-4 13 -16 16 -17 6 -19 9 -8 16 10 6 8 9 -9 9 -13 0 -21 4 -17 10 3 5 -6 17
-20 26 -14 9 -25 23 -25 31 0 9 -6 13 -14 10 -10 -4 -13 -1 -9 9 3 9 -1 14
-12 14 -9 0 -13 5 -10 10 3 5 1 10 -4 10 -6 0 -11 7 -11 15 0 8 -4 15 -10 15
-5 0 -10 7 -10 16 0 10 -6 14 -14 11 -10 -4 -13 -1 -9 9 3 9 -1 14 -13 14 -16
0 -17 2 -4 10 11 7 11 10 2 10 -7 0 -10 5 -7 10 3 6 -1 10 -9 10 -10 0 -13 7
-11 21 3 16 1 18 -9 10 -11 -9 -13 -6 -12 11 1 14 -4 22 -12 20 -8 -1 -11 2
-7 8 3 5 1 10 -6 10 -8 0 -8 4 1 15 11 13 10 14 -6 8 -17 -6 -18 -5 -4 12 9
11 10 16 3 11 -22 -13 -33 3 -22 31 8 21 7 24 -4 15 -10 -9 -13 -5 -15 15 -1
15 -7 30 -12 33 -5 3 -11 18 -12 32 -1 15 -5 25 -9 22 -4 -2 -9 7 -11 21 -3
13 0 26 6 29 6 2 3 5 -6 5 -11 1 -18 9 -18 22 0 13 4 18 12 14 7 -4 1 5 -14
19 -25 22 -26 26 -12 40 13 14 14 16 0 16 -12 0 -13 6 -6 30 6 21 5 30 -3 30
-6 0 -2 7 9 15 19 15 19 15 -1 8 -11 -3 -17 -3 -13 2 4 4 0 14 -8 23 -9 8 -12
18 -7 21 10 7 13 82 3 76 -4 -2 -7 2 -7 10 0 8 4 12 8 9 4 -2 7 5 6 16 -1 11
-6 20 -12 20 -5 0 -4 4 3 9 8 4 13 11 13 15 -3 19 1 25 17 29 13 4 13 5 2 6
-12 1 -15 10 -12 36 3 23 8 32 16 28 6 -4 5 1 -3 10 -9 11 -10 17 -2 17 6 0
11 7 11 16 0 9 5 12 12 8 7 -4 8 -3 4 4 -4 6 -12 10 -19 8 -7 -1 -9 -1 -4 1 4
3 4 10 0 16 -3 7 -3 9 2 5 15 -14 34 12 26 35 -9 24 -4 50 9 42 4 -3 10 4 13
15 3 11 2 18 -2 15 -4 -2 -8 2 -8 10 0 7 8 12 19 10 15 -3 16 -1 8 15 -7 13
-6 19 5 24 10 3 14 14 11 30 -3 19 -1 23 11 19 11 -4 14 -2 9 5 -4 7 -2 12 5
12 8 0 8 4 -1 15 -11 13 -10 14 4 9 9 -3 16 -1 16 5 0 6 -6 11 -12 11 -7 0 -5
5 5 11 9 5 21 8 26 5 5 -4 7 4 3 16 -4 17 -2 20 13 14 15 -5 16 -4 5 9 -10 12
-9 16 3 21 9 3 13 12 10 20 -4 10 0 12 10 8 12 -4 15 -1 12 15 -2 12 0 19 4
17 5 -3 17 4 27 17 19 21 19 21 -1 7 -19 -14 -19 -14 -6 3 7 9 20 17 28 17 9
0 13 6 10 14 -4 11 -1 13 11 9 15 -6 15 -5 3 11 -8 9 -10 16 -5 15 5 -1 16 -1
24 0 13 1 13 2 0 11 -15 9 -14 11 13 14 6 1 11 7 9 14 -2 11 11 16 31 13 5 -1
6 3 3 8 -4 5 3 16 14 24 11 7 17 17 13 20 -3 4 -1 8 5 8 27 3 31 4 39 13 5 5
2 6 -6 1 -9 -5 -12 -4 -10 4 3 7 7 11 9 10 9 -6 50 35 50 50 0 8 3 11 7 8 3
-4 18 3 31 15 14 13 22 16 18 8 -7 -13 -6 -13 6 0 8 8 20 21 28 29 12 11 12
12 1 6 -10 -6 -12 -4 -7 4 6 9 11 9 24 -1 9 -8 13 -8 9 -2 -4 7 0 15 9 18 8 3
12 11 9 16 -4 6 -3 9 2 8 16 -4 53 14 53 26 0 7 16 18 35 26 19 8 35 18 35 22
0 5 4 7 9 3 5 -3 13 0 16 6 4 5 13 8 21 5 8 -3 13 0 11 6 -1 6 13 15 31 20 18
5 30 13 27 18 -6 10 3 13 37 13 10 0 14 5 11 13 -3 9 2 14 14 14 10 0 24 5 31
12 7 7 12 8 12 3 0 -4 10 0 22 11 13 12 18 13 13 4 -7 -12 -6 -13 7 -3 8 7 18
9 22 5 4 -4 6 0 4 8 -2 8 2 15 7 16 39 6 74 18 70 23 -2 4 9 6 26 5 16 -1 27
2 24 6 -3 4 2 10 10 14 8 3 15 0 15 -6 0 -7 6 -4 13 7 8 10 19 15 25 11 7 -4
12 -2 12 4 0 6 4 9 9 5 5 -3 13 0 17 6 4 8 9 7 15 -2 7 -11 9 -11 9 2 0 11 9
17 26 17 15 0 29 4 33 9 3 5 16 8 28 7 12 -1 20 3 17 7 -3 5 4 9 16 9 12 0 31
5 42 11 16 8 19 8 13 -1 -6 -9 -3 -9 12 -1 11 6 23 7 27 4 3 -3 6 -2 6 4 0 5
13 9 30 8 17 -1 31 4 34 12 3 8 11 11 17 7 6 -3 37 -1 70 6 32 7 61 12 65 10
4 -1 11 4 15 12 5 7 9 8 9 2 0 -6 7 -11 15 -11 8 0 15 3 15 7 0 4 18 6 40 6
22 -1 40 2 40 6 0 4 7 5 16 1 9 -3 20 0 25 8 6 9 9 10 9 2 0 -11 30 -10 49 1
5 4 12 0 14 -6 4 -10 6 -10 6 0 1 7 6 10 12 6 6 -3 15 0 20 7 7 12 9 12 9 0 0
-11 3 -11 15 -1 12 10 15 10 15 0 0 -9 3 -10 13 -1 8 6 17 8 20 5 8 -8 126 -8
134 -1 3 3 16 2 29 -3 14 -6 26 -6 29 1 4 5 11 7 16 3 5 -3 34 -6 64 -6 30 -1
55 -4 55 -7 0 -3 23 -7 50 -8 124 -5 140 -6 140 -17 0 -6 5 -4 10 4 5 8 10 10
10 4 0 -12 4 -13 88 -16 34 -1 62 -6 62 -11 0 -5 6 -4 14 2 12 10 14 9 11 -6
-2 -10 -4 -20 -5 -23 -1 -3 -2 -8 -1 -12 0 -5 -4 -8 -9 -8 -6 0 -10 5 -10 10
0 6 -10 1 -22 -10 -12 -11 -28 -18 -35 -16 -7 3 -13 -2 -13 -11 0 -9 -3 -13
-7 -10 -3 4 -17 0 -31 -9 -17 -11 -22 -12 -17 -3 5 8 -2 5 -15 -6 -13 -11 -20
-14 -15 -6 6 10 4 12 -4 7 -7 -5 -10 -15 -6 -25 5 -12 4 -13 -6 -4 -10 10 -15
9 -26 -5 -8 -9 -11 -11 -8 -4 6 11 3 11 -13 1 -12 -7 -18 -17 -16 -21 3 -4 -7
-3 -21 2 -14 5 -24 6 -21 1 3 -4 -6 -13 -19 -19 -18 -8 -25 -9 -25 -1 0 8 -4
8 -12 1 -7 -6 -16 -11 -20 -11 -5 -1 -9 -1 -10 -2 -2 0 -10 -2 -18 -4 -8 -2
-26 -7 -40 -10 -14 -3 -32 -8 -40 -10 -8 -2 -17 -4 -20 -5 -3 -1 -8 -2 -12 -1
-5 0 -8 -5 -8 -11 0 -9 -4 -8 -10 2 -5 8 -10 10 -10 4 0 -6 -11 -16 -25 -22
-33 -15 -38 -15 -29 1 4 6 -2 4 -13 -6 -11 -9 -23 -14 -26 -10 -4 3 -7 1 -7
-6 0 -7 -4 -9 -10 -6 -5 3 -19 1 -31 -6 -17 -9 -20 -8 -13 3 6 11 5 11 -9 -1
-9 -7 -17 -11 -17 -8 0 3 -15 1 -32 -5 -18 -5 -46 -13 -63 -18 -16 -4 -39 -11
-49 -16 -13 -5 -17 -4 -13 3 4 6 -10 3 -30 -7 -28 -13 -40 -15 -45 -7 -6 9 -8
9 -8 0 0 -7 -9 -13 -20 -13 -11 0 -20 -5 -20 -11 0 -5 -4 -8 -9 -4 -5 3 -13 0
-17 -6 -4 -7 -3 -9 4 -5 14 9 21 -15 10 -37 -6 -12 -5 -17 4 -15 7 2 12 -3 11
-9 -2 -7 4 -13 13 -13 8 0 12 -4 9 -10 -3 -5 -1 -10 4 -10 20 0 26 -4 44 -27
10 -12 16 -27 13 -32 -3 -5 3 -7 14 -4 14 4 20 0 20 -13 0 -9 3 -14 7 -11 3 4
11 -3 17 -15 6 -13 23 -28 36 -35 14 -7 21 -13 17 -13 -4 0 2 -10 13 -22 20
-21 20 -23 4 -35 -17 -12 -17 -13 0 -13 9 0 14 -5 11 -10 -4 -6 -12 -7 -18 -3
-7 4 -6 0 2 -10 12 -16 8 -22 -12 -18 -5 1 -6 -3 -2 -9 3 -5 0 -10 -7 -10 -9
0 -9 -3 2 -10 13 -9 13 -10 0 -10 -8 0 -21 -9 -28 -21 -8 -12 -9 -18 -4 -15 6
3 12 -1 15 -9 4 -9 1 -12 -7 -9 -8 3 -17 0 -22 -7 -5 -8 -3 -10 7 -5 10 6 10
4 -1 -6 -8 -7 -15 -20 -15 -28 0 -8 -6 -14 -13 -12 -8 1 -11 -2 -8 -7 4 -5 0
-12 -6 -15 -7 -3 -2 -3 12 0 21 4 22 3 7 -6 -9 -6 -15 -16 -11 -21 3 -5 0 -8
-7 -7 -6 2 -14 -3 -17 -11 -3 -8 0 -11 7 -7 7 5 9 1 5 -8 -3 -9 -10 -16 -14
-16 -4 0 -11 -7 -14 -16 -4 -10 -2 -13 6 -8 8 5 9 2 5 -10 -4 -10 -7 -20 -7
-23 0 -3 -7 1 -17 8 -15 13 -15 12 -5 -8 15 -28 15 -36 0 -27 -10 6 -10 4 0
-8 10 -13 10 -18 1 -24 -8 -5 -9 -3 -4 6 6 9 4 11 -4 5 -8 -4 -11 -18 -8 -33
3 -17 -1 -30 -11 -38 -14 -10 -14 -14 -3 -28 12 -14 12 -16 -4 -10 -14 6 -16
4 -9 -7 4 -8 7 -22 5 -33 -1 -11 2 -16 8 -11 6 3 0 -15 -15 -40 -14 -26 -22
-45 -16 -41 13 8 8 -50 -6 -67 -9 -10 -8 -14 3 -14 8 0 11 5 8 10 -4 6 -1 7 6
2 9 -5 10 -10 2 -18 -15 -15 -14 -47 1 -47 6 0 3 -7 -8 -16 -10 -8 -13 -13 -7
-9 9 4 11 1 7 -9 -3 -9 -10 -13 -15 -10 -15 9 -10 -3 8 -17 14 -12 16 -12 8 0
-5 10 -4 12 3 7 9 -5 7 -15 -6 -34 -9 -14 -12 -23 -6 -19 16 10 11 -77 -6
-100 -12 -15 -11 -15 9 2 l24 20 -12 -23 c-13 -25 -7 -57 8 -47 10 6 6 -33 -4
-43 -2 -3 0 -11 6 -19 9 -10 8 -13 0 -13 -7 0 -9 -5 -6 -10 5 -7 11 -8 18 -1
9 7 12 0 11 -27 -1 -20 5 -43 13 -50 12 -12 11 -18 -3 -41 l-17 -26 23 20 23
20 -11 -22 c-9 -17 -9 -22 4 -27 11 -4 13 -13 9 -27 -5 -13 -3 -19 3 -15 5 3
13 -1 16 -10 3 -8 2 -12 -3 -9 -5 3 -13 0 -17 -6 -4 -8 -3 -9 4 -5 7 4 12 2
12 -3 0 -6 3 -10 8 -10 21 4 24 -3 6 -16 -13 -11 -14 -14 -4 -13 8 2 14 -3 12
-11 -2 -8 3 -11 11 -8 7 3 14 -1 14 -8 0 -7 -7 -11 -16 -9 -9 3 -6 -1 7 -7 12
-7 22 -16 22 -21 0 -5 -6 -6 -12 -3 -7 4 -5 0 5 -8 14 -11 15 -16 5 -20 -8 -4
-7 -6 5 -6 10 -1 17 -9 17 -22 0 -13 4 -18 12 -13 7 5 9 2 5 -8 -4 -11 1 -18
14 -21 13 -4 17 -10 12 -23 -5 -13 -3 -15 8 -9 11 7 11 5 -1 -10 -9 -11 -10
-16 -2 -11 7 4 12 2 12 -6 0 -8 9 -20 19 -28 11 -7 18 -17 15 -22 -3 -4 2 -8
10 -8 9 0 16 -4 16 -10 0 -5 -8 -7 -17 -4 -10 3 -6 -2 9 -12 15 -10 32 -31 39
-46 6 -15 16 -25 22 -21 5 3 7 1 4 -4 -4 -6 0 -16 8 -23 8 -7 15 -19 15 -27 0
-8 4 -12 9 -9 5 3 12 -5 15 -19 5 -18 11 -23 24 -18 15 6 16 5 2 -12 -14 -17
-14 -18 7 -6 20 10 22 9 16 -5 -5 -13 -3 -15 7 -9 10 6 12 4 6 -11 -4 -10 -4
-15 0 -12 3 4 13 0 21 -8 8 -8 20 -11 26 -7 7 4 5 -2 -3 -12 -9 -11 -10 -16
-2 -11 7 4 12 2 12 -4 0 -6 5 -8 10 -5 6 3 10 1 10 -5 0 -15 25 -40 40 -40 6
0 8 -5 5 -10 -3 -6 -1 -10 6 -10 16 0 69 -62 62 -74 -3 -5 -1 -6 6 -2 6 4 8
13 5 19 -3 7 8 -4 26 -23 18 -19 29 -28 25 -20 -3 8 1 6 10 -5 9 -11 21 -19
26 -18 5 2 9 -2 9 -7 0 -6 7 -10 15 -10 8 0 15 -4 15 -10 0 -5 7 -10 16 -10 8
0 12 -4 9 -10 -3 -6 1 -7 9 -4 11 4 16 0 16 -10 0 -14 12 -20 33 -17 4 0 7 -2
7 -7 0 -4 14 -13 30 -20 17 -8 28 -18 25 -23 -4 -5 1 -6 9 -3 9 3 26 -5 41
-20 14 -14 25 -20 25 -14 0 6 9 1 19 -11 11 -12 23 -22 28 -21 4 0 17 -2 28
-6 11 -3 23 -6 27 -5 5 1 7 -4 5 -11 -1 -7 5 -13 13 -13 8 0 14 -7 12 -14 -2
-9 3 -11 13 -7 9 3 23 -1 32 -9 8 -8 19 -13 24 -10 5 4 9 2 9 -4 0 -6 16 -13
35 -17 19 -3 38 -10 41 -15 3 -5 14 -9 25 -9 10 0 19 -5 19 -11 0 -5 4 -8 9
-4 5 3 16 -2 24 -10 9 -8 27 -15 40 -15 14 0 27 -4 29 -10 2 -5 15 -11 31 -12
15 -1 27 -6 27 -11 0 -4 4 -6 9 -2 5 3 16 -1 24 -9 7 -8 20 -14 28 -14 31 2
50 -2 45 -10 -3 -4 8 -7 25 -6 16 1 29 -2 29 -8 0 -5 4 -6 10 -3 6 3 10 2 10
-2 0 -8 28 -13 78 -16 6 0 12 -3 12 -7 0 -7 9 -9 58 -13 17 -1 32 -4 32 -7 0
-3 15 -6 33 -7 40 -3 59 -7 72 -14 6 -3 26 -7 45 -8 49 -2 68 -6 76 -14 4 -3
15 -2 25 3 11 6 19 6 21 0 2 -5 27 -10 56 -11 28 -2 52 -6 52 -11 0 -5 8 -4
18 1 10 5 24 6 32 1 8 -5 21 -5 30 0 9 5 22 5 30 0 8 -5 21 -5 30 0 9 5 22 5
31 -1 20 -13 31 -11 23 4 -6 9 -4 9 8 -1 21 -17 272 -20 291 -3 8 6 17 8 20 5
10 -10 50 -11 68 -3 8 4 21 4 29 -1 9 -5 19 -5 27 2 9 7 13 7 13 -1 0 -7 5 -9
11 -5 14 8 64 17 96 16 13 0 21 4 18 8 -6 10 15 8 32 -3 6 -4 13 -2 15 4 2 7
26 12 56 12 29 0 52 3 52 8 0 5 7 6 15 3 8 -4 15 -2 15 4 0 5 11 8 25 7 14 -2
25 2 25 8 0 7 5 5 10 -3 9 -13 10 -13 10 0 0 13 1 13 10 0 7 -12 10 -12 10 -1
0 7 6 11 15 7 8 -3 15 0 15 6 0 6 3 8 7 5 3 -4 12 -2 20 4 10 9 13 8 13 -2 0
-9 3 -10 8 -4 9 13 32 17 32 6 0 -5 9 -7 20 -4 12 3 20 0 20 -7 0 -23 33 -45
73 -49 5 -1 5 -6 1 -13 -5 -7 -3 -8 5 -4 7 5 21 0 33 -11 11 -10 23 -17 27
-16 3 1 5 -5 3 -13 -2 -8 5 -14 18 -14 11 0 20 -5 20 -11 0 -5 4 -8 9 -4 5 3
16 -1 24 -9 8 -8 17 -12 21 -9 3 4 6 1 6 -6 0 -7 5 -9 10 -6 6 3 10 1 10 -5 0
-6 5 -8 10 -5 6 3 10 -1 10 -9 0 -14 19 -21 43 -17 5 1 6 -3 3 -8 -3 -5 2 -15
11 -22 14 -12 16 -12 9 1 -4 8 -1 7 7 -3 11 -14 16 -15 20 -5 3 8 6 6 6 -5 1
-10 5 -15 11 -12 6 3 10 -2 10 -12 0 -15 2 -16 10 -3 6 10 10 11 10 3 0 -7 9
-13 21 -13 13 0 18 -4 13 -12 -5 -8 -2 -9 9 -5 10 3 17 2 17 -4 0 -6 7 -17 15
-25 9 -10 15 -11 15 -4 0 6 11 -2 25 -18 17 -21 31 -28 45 -25 12 3 22 -1 26
-11 3 -9 11 -13 17 -9 6 4 8 0 4 -10 -3 -9 -3 -16 1 -15 12 4 72 -24 72 -34 0
-5 5 -6 10 -3 6 3 10 -1 10 -10 0 -9 4 -13 10 -10 6 3 10 1 10 -5 0 -6 4 -8
10 -5 6 3 10 2 10 -3 0 -5 14 -15 30 -22 17 -7 30 -17 30 -23 0 -6 3 -7 7 -4
3 4 15 -1 26 -10 15 -13 19 -14 13 -3 -4 8 0 6 8 -4 9 -11 16 -16 16 -11 0 5
7 0 16 -11 8 -10 13 -12 9 -4 -4 10 -2 9 8 -2 8 -10 19 -18 26 -18 6 0 11 -5
11 -11 0 -5 5 -7 12 -3 7 5 9 2 6 -8 -4 -8 -1 -15 5 -16 22 -2 67 -17 91 -30
5 -3 6 1 1 7 -5 10 -3 11 11 4 16 -8 78 -10 94 -3 3 1 12 3 20 4 8 0 14 7 13
13 -2 7 0 12 5 12 20 -3 32 2 27 12 -4 6 2 13 14 16 16 4 19 9 11 18 -8 10 -8
15 1 21 8 5 9 3 4 -7 -7 -12 -6 -12 7 -1 10 8 14 21 10 34 -4 16 -2 19 9 12
10 -6 9 -1 -3 18 -12 19 -14 28 -5 37 8 8 8 11 -2 11 -11 0 -11 3 0 17 11 13
11 17 2 20 -7 3 -13 9 -13 14 0 6 4 8 8 5 5 -3 9 1 9 9 0 8 -6 15 -13 15 -7 0
-11 8 -9 20 2 11 -1 22 -6 26 -6 4 -6 11 2 20 9 11 8 14 -3 14 -11 0 -14 7
-10 26 3 16 1 25 -5 21 -5 -3 -10 0 -10 8 0 8 3 12 7 10 3 -2 7 6 7 18 2 17 0
19 -7 7 -7 -11 -10 -11 -10 -2 0 8 -5 10 -12 6 -10 -6 -10 -5 -1 7 9 11 9 19
2 26 -8 8 -7 13 2 18 8 6 10 4 4 -5 -5 -9 -4 -11 4 -6 14 9 5 26 -15 26 -8 0
-12 5 -9 10 3 6 0 10 -7 10 -8 0 -9 3 -3 8 14 10 17 62 3 62 -6 0 -5 7 3 17 8
9 9 14 3 10 -7 -4 -18 1 -25 10 -8 10 -9 14 -2 10 8 -5 11 0 10 13 -1 13 -6
19 -15 15 -10 -3 -11 1 -7 16 6 17 4 20 -6 13 -11 -6 -12 -5 -2 7 17 20 13 62
-4 48 -9 -8 -11 -5 -8 12 3 12 -1 29 -8 38 -9 11 -9 13 0 8 8 -5 11 -1 10 12
0 11 -4 18 -9 15 -4 -2 -12 6 -19 18 -11 20 -10 21 3 10 13 -10 15 -9 10 13
-2 14 -9 22 -14 19 -6 -4 -5 3 1 14 8 15 8 23 0 28 -6 3 -8 15 -6 26 4 16 3
17 -9 7 -19 -16 -18 -4 2 15 14 15 14 16 -4 16 -15 0 -18 5 -14 25 2 14 -2 33
-9 42 -10 12 -10 14 -1 9 7 -4 12 -1 12 9 0 9 -4 13 -10 10 -6 -4 -10 6 -10
22 0 16 -5 34 -11 40 -9 9 -6 11 12 7 18 -4 20 -3 10 4 -16 11 -25 46 -10 36
5 -3 9 0 9 6 0 6 5 8 10 5 6 -3 10 -1 10 5 0 6 5 8 13 4 8 -5 7 -2 -2 9 -12
15 -12 17 4 10 14 -5 17 -3 12 10 -4 11 -2 14 9 10 9 -3 14 1 14 12 0 11 5 15
15 12 8 -4 17 -1 21 5 5 7 2 8 -7 4 -8 -4 -2 2 14 14 15 12 25 26 21 31 -3 5
0 9 6 9 6 0 8 5 4 13 -5 8 -2 7 9 -2 16 -12 17 -12 11 5 -4 10 -4 16 1 12 8
-8 35 15 35 30 0 18 48 54 62 46 11 -6 11 -5 0 8 -9 11 -10 18 -2 23 5 3 10 3
10 -2 0 -4 8 4 17 17 10 14 17 28 15 33 -1 4 3 7 9 7 5 0 7 5 3 11 -4 8 1 9
17 4 24 -7 24 -7 4 10 -11 9 -14 14 -7 10 6 -3 12 -1 12 5 0 6 4 9 9 6 5 -4 7
4 4 16 -4 19 -3 20 6 8 9 -13 11 -12 12 5 1 11 1 23 0 28 0 4 6 7 14 7 9 0 12
6 8 18 -3 9 -2 14 2 10 10 -9 40 30 40 52 0 8 5 14 11 13 6 -1 10 8 9 20 -1
12 6 30 16 40 17 16 24 37 20 60 0 4 6 7 15 7 13 0 14 3 5 14 -9 11 -7 15 11
20 13 4 18 10 12 12 -17 7 -4 46 12 40 10 -4 11 1 3 21 -9 24 -8 25 7 12 16
-13 16 -12 5 10 -12 22 -12 23 7 19 18 -5 19 -4 9 14 -9 16 -9 22 1 25 6 3 12
9 12 14 0 6 -4 7 -10 4 -6 -3 -7 1 -4 9 3 9 11 13 18 9 7 -5 7 -2 -1 8 -15 18
-1 45 17 34 9 -6 11 -4 5 4 -4 7 -8 32 -9 56 -1 36 1 42 16 40 14 -3 16 0 9
14 -5 9 -6 23 -1 31 4 7 4 24 -1 37 -6 16 -5 23 4 23 8 0 7 4 -3 10 -13 8 -13
10 -1 10 11 0 9 4 -5 15 -19 15 -19 15 1 8 18 -6 19 -5 5 12 -9 11 -10 16 -2
11 7 -4 12 -2 13 6 6 78 5 107 -5 101 -6 -3 -6 0 1 7 9 10 7 16 -9 30 -17 13
-18 19 -8 25 9 5 11 4 6 -3 -4 -7 -2 -12 3 -12 14 0 14 17 0 26 -8 4 -7 9 2
15 10 6 9 12 -6 29 -14 15 -15 19 -4 15 15 -6 16 1 10 46 -1 3 -11 11 -23 17
-16 7 -18 11 -7 11 9 1 16 8 16 16 0 8 -4 12 -8 9 -4 -2 -11 1 -15 7 -4 8 -3
9 4 5 7 -4 12 -2 12 4 0 6 6 8 13 5 6 -4 4 0 -7 9 -10 8 -15 20 -10 27 4 7 3
10 -3 6 -6 -4 -13 0 -17 8 -3 8 0 15 6 15 7 0 3 7 -8 15 -16 13 -16 14 -1 9
13 -5 16 -2 11 10 -3 9 -11 13 -18 9 -6 -3 -8 -3 -4 2 4 4 2 15 -5 23 -8 11
-8 14 0 9 6 -4 14 -3 18 3 3 5 -2 10 -13 10 -10 0 -19 6 -19 13 0 6 -4 21 -9
31 -5 15 -4 17 6 11 16 -10 8 4 -29 54 -23 30 -23 34 -7 28 19 -7 19 -7 3 11
-9 10 -14 23 -10 27 5 5 1 4 -8 -2 -13 -11 -15 -8 -13 18 2 24 -1 28 -11 19
-11 -9 -12 -7 -8 9 3 12 1 21 -6 21 -6 0 -10 6 -8 13 1 6 -5 11 -13 9 -12 -3
-13 -1 -2 10 10 10 8 16 -10 31 -13 10 -17 16 -10 12 20 -10 14 9 -8 23 -11 7
-20 22 -20 34 0 12 -3 19 -6 15 -3 -3 -12 0 -19 6 -14 14 -8 40 8 30 6 -3 7
-1 3 6 -6 8 -12 9 -20 2 -10 -8 -18 -2 -31 23 -11 19 -23 33 -27 30 -4 -3 -8
2 -8 11 0 9 -13 29 -30 45 -16 16 -30 36 -30 45 0 9 -4 13 -10 10 -5 -3 -10 1
-10 9 0 9 -7 16 -15 16 -9 0 -12 6 -8 17 4 11 3 14 -5 9 -7 -4 -12 -2 -12 4 0
6 -5 8 -12 4 -6 -4 -8 -3 -4 4 3 6 -3 17 -14 25 -11 7 -17 17 -12 21 4 4 0 6
-8 4 -8 -2 -14 2 -15 9 0 6 -4 15 -9 20 -5 5 -6 3 -2 -4 4 -7 3 -13 -3 -13 -5
0 -13 9 -16 20 -4 11 -11 18 -16 15 -5 -4 -12 1 -15 9 -3 9 -13 16 -21 16 -8
0 -12 3 -10 8 5 9 -30 42 -37 34 -6 -5 -10 15 -7 32 1 5 -5 3 -14 -4 -14 -11
-16 -11 -13 1 2 9 -4 13 -15 11 -9 -2 -16 2 -15 9 2 6 -11 20 -29 30 -18 10
-41 26 -52 36 -38 34 -49 42 -55 36 -3 -4 -6 0 -6 7 0 7 -3 11 -6 7 -4 -3 -13
1 -21 9 -8 8 -19 12 -24 9 -5 -4 -9 1 -9 9 0 10 -6 13 -15 10 -8 -4 -15 -1
-15 6 0 6 -5 8 -12 4 -8 -5 -9 -2 -5 9 3 10 2 17 -2 17 -5 0 -12 -6 -14 -12
-3 -8 -6 -7 -6 4 -1 9 -6 20 -13 24 -7 5 -8 2 -3 -7 5 -8 -4 -3 -20 11 -16 14
-25 19 -21 12 8 -13 -65 26 -75 41 -3 4 -16 9 -27 10 -12 1 -22 5 -22 9 0 4
-5 8 -11 8 -6 0 -17 7 -25 15 -19 18 -38 20 -28 3 4 -7 -2 -4 -14 6 -12 11
-22 15 -22 10 0 -5 -5 -1 -11 9 -6 9 -14 15 -19 12 -5 -3 -11 -1 -15 4 -3 6
-13 7 -22 4 -11 -4 -14 -3 -9 5 5 8 -1 12 -18 12 -14 0 -26 4 -26 10 0 5 -7 6
-17 3 -12 -5 -14 -3 -8 7 6 9 4 11 -5 5 -7 -4 -16 -2 -21 6 -7 11 -9 11 -9 1
0 -10 -4 -9 -16 3 -9 9 -23 14 -30 11 -8 -3 -14 -1 -14 4 0 5 -6 7 -14 4 -8
-3 -17 0 -22 7 -5 8 -3 10 6 4 9 -6 11 -4 5 4 -5 9 -11 9 -17 3 -6 -6 -17 -7
-27 -2 -28 15 -58 25 -101 33 -14 3 -25 6 -25 7 0 1 -11 3 -25 6 -14 2 -32 7
-40 11 -8 3 -21 5 -29 4 -7 -1 -11 1 -8 6 3 4 -7 9 -21 10 -52 4 -117 11 -122
13 -3 1 -8 2 -12 1 -5 0 -8 5 -8 11 0 9 -4 8 -10 -2 -6 -9 -10 -11 -10 -3 0 7
-7 10 -17 6 -9 -4 -14 -2 -10 3 3 6 -9 8 -30 6 -28 -4 -34 -2 -27 9 6 11 5 12
-7 2 -11 -9 -25 -10 -49 -3 -18 5 -37 7 -41 4 -5 -3 -9 0 -9 6 0 6 -5 8 -10 5
-6 -4 -8 -10 -5 -15 3 -5 -12 0 -32 10 -26 13 -44 15 -60 9 -13 -5 -23 -5 -23
0 0 6 -460 7 -567 2 -7 -1 -19 -1 -25 0 -11 0 -43 -6 -58 -11 -3 -1 -17 -1
-32 0 -16 1 -28 -4 -28 -10 0 -6 -5 -8 -10 -5 -6 4 -8 12 -4 18 3 7 0 5 -8 -3
-8 -10 -27 -15 -48 -14 -19 1 -38 -4 -42 -10 -6 -8 -8 -7 -8 2 0 6 -5 12 -11
12 -5 0 -7 -5 -3 -12 5 -7 2 -9 -8 -5 -9 3 -19 3 -22 -1 -12 -12 -46 -12 -46
1 0 6 -5 4 -11 -5 -5 -10 -15 -18 -20 -18 -6 0 -7 5 -3 11 4 7 -1 7 -16 -1
-12 -6 -27 -9 -34 -7 -13 5 -15 -38 -1 -50 4 -5 5 -1 1 7 -4 8 2 4 13 -10 11
-14 21 -20 21 -15 0 6 4 4 9 -4 5 -8 17 -16 25 -17 9 -1 13 2 10 8 -3 5 3 4
14 -3 12 -7 18 -17 16 -21 -3 -5 -2 -8 3 -7 4 1 11 0 16 -1 4 -1 13 -3 20 -4
6 -1 11 -7 10 -13 -1 -6 5 -10 14 -9 19 3 43 -15 36 -26 -2 -4 2 -5 10 -2 8 3
18 0 22 -5 3 -6 11 -9 16 -5 6 3 13 -4 16 -15 4 -16 9 -19 18 -11 9 8 14 6 18
-4 3 -8 16 -20 28 -26 17 -10 20 -9 14 2 -4 7 7 -1 23 -19 17 -17 33 -29 36
-26 3 4 6 1 6 -6 0 -7 4 -10 9 -6 5 3 16 -2 24 -10 9 -8 28 -16 44 -18 16 -2
34 -7 41 -11 7 -4 12 -2 12 6 0 9 3 9 10 -2 5 -8 10 -10 10 -4 0 7 15 11 36
10 20 -1 38 2 41 6 2 5 9 6 14 2 15 -9 213 -9 227 0 7 4 12 2 12 -5 0 -10 3
-10 11 -2 8 8 20 8 34 3 13 -5 26 -6 29 -3 3 4 6 2 6 -3 0 -5 21 -9 47 -8 27
0 54 -4 62 -10 12 -9 13 -8 6 4 -7 11 -2 10 19 -4 16 -10 26 -14 22 -8 -3 6 8
10 29 10 19 0 35 -3 35 -7 0 -4 21 -8 47 -10 26 -1 50 -5 53 -9 4 -6 40 -10
102 -13 10 0 20 -4 23 -10 4 -5 17 -9 31 -9 14 0 23 -4 20 -9 -3 -4 6 -7 19
-5 14 1 27 -2 30 -6 3 -5 12 -7 20 -3 8 3 15 1 15 -4 0 -5 6 -10 13 -11 6 -1
23 -3 37 -4 14 -2 31 -9 39 -16 7 -7 19 -11 26 -8 8 3 16 -1 19 -9 3 -8 13
-11 25 -8 12 3 21 1 21 -4 0 -9 6 -11 50 -15 11 -1 20 -5 20 -8 0 -3 9 -11 21
-18 12 -8 18 -9 14 -3 -3 6 -1 11 4 11 6 0 11 -4 11 -10 0 -5 9 -10 19 -10 10
0 21 -7 25 -15 3 -8 12 -12 21 -9 8 3 15 1 15 -5 0 -6 3 -10 8 -9 14 4 57 -15
70 -31 8 -9 11 -11 8 -4 -4 6 -2 14 4 18 5 3 10 -1 10 -9 0 -14 19 -21 43 -17
5 1 6 -3 2 -9 -3 -5 1 -10 10 -10 20 0 47 -25 37 -34 -3 -4 1 -4 10 -1 9 4 18
0 21 -9 4 -9 16 -16 27 -16 11 0 23 -7 26 -15 4 -8 10 -12 15 -9 5 3 9 0 9 -5
0 -6 9 -11 21 -11 13 0 18 -4 13 -12 -5 -8 -2 -9 9 -5 10 3 17 2 17 -4 0 -11
25 -39 35 -39 3 0 3 5 -1 12 -4 7 -3 8 5 4 6 -4 10 -10 8 -14 -5 -10 30 -42
38 -34 3 3 21 -11 40 -32 22 -25 38 -35 47 -30 7 4 10 3 5 -1 -9 -10 21 -45
39 -45 8 0 11 -8 9 -21 -3 -17 -2 -19 10 -9 11 10 15 7 20 -13 4 -14 14 -28
22 -32 14 -5 14 -3 2 12 -12 15 -11 15 8 -1 13 -10 20 -22 18 -26 -3 -4 2 -11
11 -14 8 -3 12 -10 9 -16 -4 -6 1 -7 11 -3 12 4 15 3 10 -5 -4 -7 -2 -12 4
-12 6 0 8 -4 5 -10 -3 -5 1 -10 10 -10 9 0 14 -4 11 -9 -3 -5 1 -12 10 -15 9
-4 14 -13 10 -21 -5 -13 5 -19 26 -16 4 0 4 -7 1 -16 -5 -12 -3 -14 7 -8 10 6
12 4 7 -9 -5 -13 -3 -17 7 -13 10 4 14 0 11 -14 -2 -12 2 -19 11 -19 8 0 14
-9 14 -20 0 -11 5 -20 11 -20 5 0 7 -4 4 -10 -3 -5 -1 -10 5 -10 7 0 10 -6 7
-12 -2 -7 3 -19 12 -26 13 -11 13 -12 1 -7 -9 4 -7 0 4 -9 10 -8 15 -20 11
-25 -3 -6 4 -15 17 -20 21 -9 21 -10 3 -11 -11 -1 -14 -4 -7 -7 6 -2 12 -11
12 -19 0 -9 4 -13 8 -10 4 2 9 -4 9 -15 1 -12 -3 -17 -9 -13 -7 4 -8 2 -4 -5
4 -6 12 -9 17 -6 5 4 9 -1 9 -9 0 -9 -5 -16 -12 -16 -6 0 -8 -3 -5 -6 4 -4 12
-2 20 4 10 8 13 6 13 -8 0 -10 -5 -16 -11 -12 -5 3 -4 -2 4 -11 7 -9 10 -17 5
-17 -5 0 -2 -5 6 -10 13 -9 13 -10 0 -10 -11 0 -12 -2 -3 -8 7 -4 14 -18 16
-30 2 -12 6 -24 10 -28 3 -4 2 -16 -4 -27 -9 -15 -8 -18 2 -12 9 6 11 2 7 -13
-4 -15 0 -25 10 -32 10 -5 12 -10 5 -10 -12 0 -12 -17 0 -37 4 -6 3 -14 -2
-17 -11 -7 -9 -25 3 -45 7 -11 5 -13 -10 -8 -14 5 -13 2 6 -13 14 -11 18 -18
9 -14 -22 7 -35 -14 -15 -22 9 -3 16 -10 16 -16 0 -5 -4 -7 -8 -4 -5 3 -9 -1
-9 -9 0 -8 3 -12 7 -10 4 2 7 -3 7 -11 0 -9 -6 -13 -16 -9 -11 3 -10 0 3 -10
11 -8 15 -15 9 -15 -6 0 -9 -10 -6 -22 3 -17 2 -19 -5 -10 -7 11 -10 11 -15
-2 -4 -9 -3 -16 1 -16 13 0 8 -66 -7 -83 -7 -10 -10 -17 -6 -17 4 0 2 -7 -5
-15 -9 -10 -9 -15 -1 -15 6 0 11 -4 11 -10 0 -5 -10 -10 -22 -10 -13 0 -18 -4
-13 -8 14 -10 17 -32 4 -32 -5 0 -7 -5 -4 -10 4 -6 1 -9 -6 -8 -6 2 -14 -3
-17 -11 -2 -8 0 -11 6 -7 6 3 9 -1 8 -10 -1 -8 -8 -19 -15 -24 -8 -4 -10 -13
-7 -19 4 -6 1 -11 -8 -11 -8 0 -18 -5 -22 -12 -4 -7 -3 -8 4 -4 7 4 12 1 12
-9 0 -10 -6 -15 -13 -12 -8 3 -14 -3 -14 -14 -1 -12 3 -17 9 -13 7 4 8 2 4 -5
-4 -6 -12 -9 -17 -6 -5 4 -9 -1 -9 -10 0 -21 -25 -46 -36 -37 -5 4 -2 -2 6
-12 13 -17 13 -18 1 -11 -11 6 -13 4 -8 -9 4 -10 3 -15 -3 -11 -6 3 -10 1 -10
-5 0 -6 -4 -8 -10 -5 -6 4 -7 -1 -3 -11 5 -14 3 -16 -12 -11 -15 6 -16 5 -5
-8 10 -12 9 -15 -5 -15 -10 0 -16 -3 -12 -6 3 -3 -3 -14 -14 -25 -11 -11 -17
-24 -14 -30 4 -5 1 -8 -7 -7 -7 2 -12 -3 -10 -11 2 -9 -3 -11 -13 -7 -9 3 -13
2 -10 -4 3 -6 -1 -20 -9 -32 -9 -12 -16 -19 -16 -16 0 4 -10 -3 -23 -15 -13
-12 -21 -26 -19 -31 3 -5 -2 -6 -12 -3 -9 4 -15 3 -13 -1 3 -4 -1 -13 -9 -20
-8 -7 -14 -10 -14 -7 0 4 -7 0 -15 -9 -8 -8 -15 -19 -15 -25 0 -6 -7 -11 -16
-11 -9 0 -12 -5 -8 -12 5 -8 2 -9 -10 -5 -9 4 -15 3 -12 -2 8 -13 -21 -34 -35
-25 -7 4 -10 3 -7 -2 3 -5 0 -15 -8 -22 -8 -7 -14 -10 -14 -7 0 3 -11 -6 -24
-20 -16 -17 -30 -24 -38 -19 -9 5 -8 1 2 -11 9 -11 10 -16 3 -11 -8 4 -13 2
-13 -4 0 -6 -5 -8 -12 -4 -6 4 -8 3 -4 -4 3 -6 2 -13 -4 -17 -5 -3 -15 -16
-21 -28 -9 -19 -8 -19 11 3 l21 25 -12 -25 c-7 -14 -19 -31 -28 -38 -9 -8 -11
-11 -4 -8 14 7 29 -13 17 -23 -13 -9 -17 -34 -4 -26 12 8 13 -5 1 -24 -11 -17
8 -53 24 -43 5 3 4 -2 -4 -11 -9 -11 -10 -17 -2 -17 16 0 9 -24 -9 -32 -13 -6
-12 -7 1 -7 9 -1 20 -8 23 -17 4 -10 2 -13 -7 -8 -6 4 -3 -3 8 -16 11 -13 15
-20 8 -17 -13 8 -12 -18 2 -30 4 -4 5 -2 0 6 -6 10 -4 12 4 7 9 -6 8 -14 -5
-34 -13 -21 -14 -24 -2 -15 18 16 32 5 17 -14 -9 -10 -8 -13 1 -13 10 0 10 -3
0 -15 -9 -11 -9 -15 -1 -15 7 0 10 -4 7 -9 -3 -5 1 -12 10 -15 13 -5 14 -9 4
-21 -10 -12 -10 -15 0 -15 8 0 10 -3 7 -7 -4 -3 0 -17 8 -29 13 -21 13 -24 -3
-33 -16 -10 -16 -10 1 -11 10 0 15 -4 12 -10 -3 -5 0 -10 7 -11 7 0 4 -4 -7
-9 -19 -8 -18 -9 4 -9 18 -1 21 -4 12 -14 -8 -10 -7 -17 2 -26 9 -10 9 -11 -3
-8 -8 2 -12 2 -7 0 4 -3 5 -9 2 -14 -4 -5 0 -6 7 -4 9 4 14 -2 15 -15 1 -13
-3 -18 -10 -14 -7 3 -3 -2 7 -10 18 -15 15 -20 -9 -17 -5 1 -1 -6 9 -14 11 -8
18 -15 15 -16 -2 0 -12 -2 -21 -4 -10 -2 -18 2 -18 8 0 8 -4 7 -12 -1 -9 -9
-18 -4 -41 21 -17 17 -27 26 -23 20 4 -7 2 -13 -3 -13 -6 0 -11 7 -11 16 0 9
-5 12 -12 8 -7 -5 -9 -2 -5 8 4 12 1 14 -14 11 -11 -3 -19 0 -19 7 0 7 -6 10
-14 7 -19 -8 -28 3 -15 19 8 10 6 12 -10 9 -12 -2 -21 0 -21 6 0 5 -7 9 -15 9
-8 0 -15 5 -15 10 0 6 -7 10 -15 10 -8 0 -15 5 -15 11 0 8 -6 7 -17 -2 -10 -7
-15 -9 -11 -5 5 5 -2 16 -15 25 -12 9 -23 13 -25 11 -2 -3 -10 6 -17 20 -9 15
-15 19 -15 10 0 -9 -6 -5 -15 10 -8 14 -14 19 -15 12 0 -10 -3 -10 -14 0 -8 7
-11 17 -8 22 3 5 0 6 -7 2 -7 -5 -20 3 -33 19 -11 14 -23 24 -26 21 -3 -3 -11
-1 -19 5 -7 6 -13 8 -13 4 0 -5 -9 2 -19 14 -11 12 -23 22 -28 22 -17 -1 -43
11 -43 20 0 6 -4 7 -10 4 -5 -3 -10 1 -10 10 0 9 -4 13 -10 10 -5 -3 -10 -1
-10 5 0 7 -7 10 -15 6 -8 -3 -14 -2 -12 2 1 4 -3 8 -8 10 -6 2 -14 10 -18 18
-7 12 -12 13 -23 3 -11 -9 -14 -9 -14 1 0 7 -7 10 -15 6 -8 -3 -15 -2 -15 3 0
16 -150 -4 -162 -22 -6 -9 -8 -8 -8 3 0 13 -1 13 -10 0 -5 -8 -10 -11 -10 -6
0 5 -8 2 -17 -5 -15 -12 -16 -12 -8 1 7 12 6 13 -6 5 -8 -6 -27 -12 -44 -14
-16 -2 -32 -6 -35 -10 -3 -3 -16 -6 -30 -7 -25 -1 -85 -11 -85 -14 0 -1 -12
-3 -27 -4 -16 -1 -28 2 -28 7 0 5 -7 4 -15 -3 -8 -6 -19 -9 -25 -5 -5 3 -10 2
-10 -2 0 -5 -19 -8 -42 -7 -24 1 -51 -3 -60 -7 -10 -5 -19 -5 -23 0 -3 6 -17
6 -34 1 -15 -4 -34 -4 -41 0 -7 5 -18 6 -24 4 -27 -10 -92 -10 -105 0 -11 8
-13 8 -8 0 4 -8 -4 -13 -23 -16 -16 -3 -32 0 -34 6 -3 7 -5 7 -5 1 -2 -17
-253 -7 -282 11 -5 3 -9 -1 -9 -8 0 -10 -2 -10 -8 -1 -4 6 -34 14 -67 18 -91
8 -129 17 -138 29 -6 8 -10 8 -14 -1 -3 -9 -10 -9 -28 3 -18 12 -24 12 -28 2
-4 -9 -6 -10 -6 -1 -1 7 -8 10 -18 6 -12 -5 -14 -3 -8 8 6 11 5 12 -5 2 -11
-10 -17 -9 -32 4 -14 12 -18 13 -18 3 0 -9 -5 -7 -16 6 -8 10 -13 13 -9 7 8
-18 -6 -16 -33 3 -13 9 -22 11 -22 4 0 -8 -6 -8 -20 0 -12 7 -18 16 -13 23 4
7 0 7 -10 -2 -9 -7 -17 -9 -17 -4 0 5 -13 9 -30 8 -16 -1 -30 2 -30 7 0 5 -4
7 -9 3 -5 -3 -12 -1 -16 5 -4 6 -11 8 -16 5 -5 -4 -9 -2 -9 2 0 5 -10 10 -22
10 -13 1 -24 7 -26 12 -2 5 -9 8 -17 5 -7 -3 -16 -1 -19 5 -4 6 -14 7 -23 4
-12 -5 -14 -3 -8 7 6 9 4 11 -5 5 -7 -4 -16 -2 -20 6 -5 7 -16 14 -24 15 -9 1
-13 -2 -10 -8 3 -5 -3 -4 -15 4 -12 7 -21 15 -21 18 0 3 -10 6 -22 7 -11 1
-25 8 -29 15 -5 7 -9 9 -9 4 0 -5 -6 -3 -13 3 -8 6 -17 8 -20 4 -4 -3 -7 -2
-7 4 0 6 -12 14 -27 18 -16 3 -36 13 -45 22 -9 8 -22 12 -29 7 -8 -4 -10 -3
-5 4 4 7 -3 14 -19 18 -13 3 -23 10 -20 15 3 4 -4 6 -15 4 -11 -2 -20 1 -20 6
0 17 -24 36 -42 33 -10 -1 -16 3 -15 9 1 6 -8 13 -21 15 -13 2 -26 10 -29 18
-3 8 -9 12 -13 9 -5 -3 -12 4 -15 16 -5 15 -10 18 -15 9 -5 -8 -14 -2 -29 19
-12 17 -29 31 -37 31 -8 0 -12 5 -9 10 3 6 -3 10 -15 10 -12 0 -18 5 -15 10 3
6 1 10 -5 10 -6 0 -9 4 -5 9 3 6 -3 8 -13 6 -11 -2 -24 6 -32 18 -12 21 -12
21 6 7 17 -14 18 -14 6 2 -8 9 -20 14 -28 11 -9 -3 -14 1 -14 12 0 9 -4 13
-10 10 -5 -3 -10 -1 -10 5 0 15 -46 60 -54 53 -3 -4 -6 1 -6 10 0 10 -4 17 -9
17 -5 0 -11 9 -14 20 -3 11 -13 20 -24 20 -15 0 -16 2 -3 10 13 8 12 10 -3 10
-10 0 -15 5 -12 10 3 6 1 10 -5 10 -6 0 -8 4 -5 10 3 6 1 10 -5 10 -17 0 -40
26 -32 36 4 5 6 8 3 7 -8 -5 -31 26 -28 39 2 7 2 10 0 6 -9 -16 -22 -7 -18 13
3 15 0 19 -10 15 -9 -3 -12 1 -10 15 2 11 0 17 -5 14 -5 -3 -12 5 -16 17 -4
13 -14 29 -23 36 -9 8 -10 11 -3 7 17 -9 15 10 -3 29 -8 8 -15 19 -15 25 0 6
-4 11 -10 11 -5 0 -10 5 -10 11 0 5 4 8 9 4 5 -3 13 0 17 6 4 7 3 9 -3 6 -5
-3 -17 3 -26 13 -11 13 -12 20 -4 24 9 3 9 5 0 5 -7 1 -13 8 -13 17 0 9 -5 12
-12 8 -6 -4 -8 -3 -4 4 3 5 0 13 -6 16 -7 4 -2 4 12 2 22 -4 23 -4 8 8 -14 10
-15 15 -5 26 10 10 9 11 -2 5 -11 -6 -13 -3 -8 14 4 18 3 20 -9 10 -9 -7 -14
-8 -14 -1 0 6 8 16 18 21 16 10 15 10 -3 11 -12 1 -15 4 -7 7 10 4 9 9 -5 20
-11 9 -12 12 -3 8 8 -4 6 1 -4 9 -15 12 -16 16 -5 16 12 0 12 2 -1 10 -13 9
-7 14 12 11 4 0 5 6 2 14 -4 8 -11 12 -18 8 -8 -4 -8 -2 1 7 6 7 9 19 6 28 -5
11 -3 13 7 7 9 -6 11 -4 6 4 -5 7 -14 10 -21 7 -9 -3 -11 2 -7 16 4 16 2 19
-8 13 -10 -6 -11 -4 -4 6 5 8 7 22 5 33 -1 10 2 15 7 12 6 -4 8 2 5 15 -4 12
0 25 8 31 11 8 10 9 -3 4 -10 -3 -20 0 -24 6 -4 6 -3 9 2 6 5 -3 17 5 27 18
10 14 15 24 10 23 -20 -4 -24 2 -12 18 12 15 12 16 -1 8 -9 -5 -7 1 5 15 11
13 14 20 8 16 -7 -4 -13 -2 -13 4 0 6 -5 8 -12 4 -7 -4 -8 -3 -4 4 4 7 13 12
21 12 8 0 17 5 21 12 5 7 3 8 -7 3 -12 -8 -12 -6 0 8 9 11 9 17 2 17 -13 0 -9
39 5 48 6 4 10 19 9 34 -1 15 2 25 6 22 12 -7 27 26 21 48 -3 14 -1 17 14 11
16 -6 17 -5 6 9 -10 13 -10 18 -1 24 8 5 9 3 4 -6 -5 -9 -4 -11 4 -6 6 4 9 12
5 17 -3 5 0 17 8 26 11 14 11 16 -2 8 -8 -5 -1 5 15 21 22 22 32 26 38 16 5
-7 12 -10 18 -7 5 4 9 -1 9 -10 0 -9 5 -13 10 -10 6 3 10 1 10 -5 0 -6 4 -9 9
-6 5 4 7 -4 3 -16 -3 -14 -1 -19 6 -14 13 8 35 -27 24 -40 -4 -5 1 -2 11 5 15
12 17 11 18 -5 1 -11 1 -23 0 -28 -1 -5 6 -3 15 5 10 8 15 9 11 2 -10 -16 13
-52 29 -46 6 2 15 -1 20 -8 5 -8 3 -10 -6 -4 -9 6 -11 4 -5 -4 5 -9 10 -10 18
-2 7 7 17 7 31 -1 19 -10 20 -10 7 5 -9 12 -10 17 -2 17 7 0 9 5 6 10 -3 6 -1
10 6 10 6 0 9 8 6 19 -3 11 1 22 9 25 8 3 11 12 7 22 -4 10 -2 15 4 11 5 -3
10 0 10 8 0 8 -4 12 -9 9 -16 -10 -8 19 10 33 9 8 12 12 5 8 -9 -4 -10 2 -1
26 8 25 8 33 -3 41 -10 7 -8 8 9 5 19 -4 22 -2 17 14 -5 15 -3 18 12 12 12 -4
10 0 -7 15 -14 12 -18 20 -9 16 13 -4 16 1 14 20 -2 14 2 29 7 33 7 4 8 1 3
-7 -6 -9 -4 -11 4 -6 9 6 8 12 -4 26 -15 17 -15 18 2 16 13 -1 18 6 18 24 -1
14 6 30 14 36 8 6 11 16 8 21 -4 6 4 9 18 7 14 -1 23 2 19 7 -3 5 -9 7 -14 4
-4 -3 -11 2 -14 10 -3 10 1 19 12 23 19 8 28 32 11 32 -5 0 -7 5 -4 10 4 6 10
8 15 5 5 -3 5 9 0 26 -8 26 -7 29 5 19 12 -10 13 -7 9 15 -5 29 12 59 29 48 6
-3 7 -1 3 6 -4 6 -11 9 -16 6 -5 -3 -12 -1 -15 5 -4 6 -3 9 2 8 4 -2 8 -1 9 2
0 3 7 16 14 30 14 25 19 40 22 73 1 10 8 15 14 13 8 -3 11 4 9 20 -1 14 4 28
14 34 11 6 12 9 3 10 -7 0 -10 5 -7 10 3 6 0 10 -7 10 -10 0 -9 3 2 9 8 6 17
8 20 6 9 -6 7 39 -3 46 -4 3 1 22 12 43 11 20 17 36 12 36 -5 0 -11 7 -14 14
-4 11 -1 13 11 9 14 -6 15 -4 4 9 -10 13 -10 18 -1 24 8 4 9 3 5 -4 -5 -8 -2
-10 9 -6 13 5 13 9 3 22 -11 13 -10 15 6 9 15 -6 17 -5 8 6 -9 11 -2 13 37 13
27 -1 47 -4 44 -8 -2 -5 3 -9 11 -9 24 -2 29 -4 54 -17 18 -10 22 -10 22 0 0
9 3 10 8 2 11 -17 65 -42 85 -39 9 2 17 -3 17 -11 0 -8 5 -14 11 -14 5 0 8 4
5 8 -3 5 10 4 29 -2 19 -6 35 -15 35 -19 0 -5 4 -6 9 -2 5 3 17 -2 25 -11 12
-11 16 -12 16 -2 0 10 3 9 10 -2 5 -8 10 -12 10 -7 0 4 9 -2 21 -14 17 -17 23
-18 37 -7 9 8 13 8 9 1 -7 -12 43 -43 70 -43 8 0 11 -4 8 -10 -3 -5 1 -10 9
-10 9 0 16 -6 16 -12 0 -9 4 -8 10 2 6 10 10 11 10 3 0 -7 7 -13 15 -13 8 0
15 -4 15 -10 0 -5 9 -10 20 -10 11 0 23 -7 26 -15 4 -8 10 -12 15 -9 5 3 9 0
9 -5 0 -6 7 -11 15 -11 7 0 18 -7 23 -16 5 -9 12 -15 16 -14 13 4 66 -22 66
-32 0 -6 6 -8 14 -5 10 4 13 0 11 -14 -4 -17 -2 -19 11 -8 12 10 13 9 8 -4 -4
-12 0 -15 19 -13 20 2 23 -1 19 -17 -3 -13 -1 -18 6 -13 6 3 17 0 25 -8 8 -8
17 -12 21 -9 3 4 6 -1 6 -10 0 -16 12 -22 33 -18 5 1 6 -3 3 -8 -3 -5 1 -11 9
-15 8 -3 15 -12 15 -21 0 -8 6 -15 14 -15 7 0 25 -18 40 -40 14 -22 29 -40 32
-40 3 0 -4 15 -16 33 l-22 32 26 -30 c14 -16 26 -37 27 -45 0 -10 2 -11 6 -3
3 10 7 10 18 0 10 -9 10 -15 1 -26 -8 -12 -8 -13 2 -7 7 4 12 2 12 -4 0 -6 5
-8 10 -5 6 3 10 1 10 -5 0 -6 5 -8 13 -4 8 5 8 2 -2 -9 -11 -14 -11 -17 0 -18
8 -1 18 -1 23 0 5 1 3 -5 -4 -14 -7 -9 -9 -15 -4 -14 23 4 34 -3 34 -22 0 -11
5 -17 10 -14 9 5 15 -16 11 -38 -1 -5 3 -6 9 -2 5 3 10 1 10 -5 0 -6 4 -9 9
-6 12 8 21 -18 16 -44 -4 -18 -2 -20 11 -9 12 10 13 9 9 -3 -4 -9 0 -18 9 -21
8 -3 13 -15 11 -26 -2 -11 3 -22 10 -25 7 -2 12 -16 11 -29 -2 -17 1 -24 10
-20 9 3 11 -2 7 -19 -4 -18 -3 -20 6 -8 9 12 11 9 11 -17 0 -17 7 -39 16 -47
8 -9 10 -16 4 -16 -8 0 -8 -6 0 -20 6 -11 14 -18 19 -16 4 3 6 -9 3 -27 -3
-25 -1 -29 7 -17 9 13 11 13 11 -2 0 -9 -6 -19 -12 -22 -7 -4 -3 -4 10 -2 18
3 21 1 13 -8 -6 -7 -9 -29 -8 -50 3 -30 0 -36 -12 -31 -11 3 -11 1 3 -9 10 -9
15 -20 10 -27 -5 -8 -2 -11 7 -7 10 4 15 -1 15 -12 0 -10 -5 -16 -11 -14 -5 3
-1 -2 10 -12 20 -16 20 -16 -2 -11 -15 3 -20 1 -16 -9 3 -8 9 -11 14 -8 5 3 5
-5 0 -19 -7 -18 -5 -28 7 -41 16 -16 16 -17 -3 -10 -18 7 -19 6 -5 -11 9 -11
10 -16 3 -11 -18 10 -16 -9 2 -27 12 -13 12 -15 -6 -20 -20 -5 -22 -26 -4 -39
6 -5 4 -8 -5 -8 -11 0 -15 -11 -15 -39 0 -23 4 -37 10 -33 6 3 4 -1 -2 -10 -7
-8 -10 -18 -6 -21 3 -4 1 -7 -5 -7 -7 0 -12 -11 -12 -25 0 -17 -6 -25 -17 -25
-15 0 -14 -2 3 -15 18 -14 18 -15 0 -9 -16 6 -17 5 -6 -16 11 -20 10 -22 -4
-17 -9 4 -15 3 -15 -1 3 -21 -2 -32 -13 -26 -7 4 -8 3 -4 -5 4 -6 11 -9 16 -6
20 12 18 -14 -3 -31 -21 -19 -21 -19 -7 1 14 18 14 19 -2 7 -9 -7 -15 -22 -13
-34 3 -15 0 -18 -12 -14 -13 5 -14 4 -3 -9 8 -10 9 -15 2 -15 -7 0 -9 -7 -5
-17 4 -11 3 -14 -5 -9 -7 4 -12 1 -12 -7 0 -8 -9 -17 -21 -20 -17 -5 -18 -3
-7 11 8 10 9 13 1 9 -6 -4 -14 -3 -18 3 -4 6 -12 7 -18 4 -7 -4 -9 -4 -5 1 4
4 -2 16 -13 26 -12 10 -18 23 -14 28 4 7 0 8 -11 4 -12 -4 -15 -3 -10 5 4 8 0
12 -11 12 -15 0 -16 2 -3 10 13 8 12 10 -2 10 -10 0 -18 5 -18 10 0 6 -8 10
-17 11 -15 0 -15 2 2 9 14 6 16 9 5 10 -8 2 -18 2 -22 1 -4 0 -10 8 -13 19 -4
11 -11 20 -16 20 -6 0 -7 4 -4 10 4 6 -1 7 -12 3 -16 -6 -17 -5 -3 12 10 13
11 16 2 11 -9 -5 -21 0 -34 14 -11 12 -27 19 -35 16 -8 -3 -19 -6 -25 -6 -7 0
-6 -5 1 -14 9 -11 9 -16 0 -22 -8 -4 -9 -3 -5 4 4 7 2 12 -3 12 -14 0 -14 -17
-1 -25 6 -4 8 -11 4 -16 -3 -5 -9 -7 -14 -4 -4 3 -11 -2 -14 -11 -9 -24 -7
-31 5 -14 8 12 9 12 7 -5 -1 -11 1 -26 5 -32 6 -9 3 -11 -9 -6 -13 5 -15 3 -9
-7 6 -10 4 -12 -10 -6 -15 5 -16 4 -6 -8 9 -11 9 -16 0 -22 -9 -5 -7 -10 5
-20 16 -11 16 -13 -1 -26 -11 -7 -18 -24 -17 -38 1 -14 -4 -30 -12 -37 -10 -7
-12 -13 -5 -18 6 -3 11 -12 11 -18 0 -8 -3 -8 -9 1 -6 10 -10 7 -13 -12 -5
-23 -3 -25 11 -14 12 10 12 8 -1 -8 -10 -11 -18 -25 -18 -31 0 -6 -6 -14 -12
-16 -8 -3 -5 -6 5 -6 10 -1 15 -6 12 -11 -4 -6 -12 -7 -18 -3 -7 4 -6 0 2 -10
11 -14 11 -18 -3 -23 -9 -3 -16 -10 -16 -16 0 -5 3 -7 8 -5 4 3 7 -5 7 -18 0
-17 -3 -21 -12 -14 -8 7 -10 4 -6 -11 4 -16 2 -19 -13 -13 -18 6 -18 6 0 -15
13 -15 15 -22 6 -22 -9 0 -10 -3 -1 -14 9 -10 7 -17 -6 -27 -16 -13 -17 -12
-4 4 7 9 9 17 3 17 -10 0 -18 -14 -21 -35 0 -5 3 -10 8 -10 5 0 13 -4 18 -9 5
-5 3 -6 -4 -2 -8 5 -13 1 -13 -9 0 -12 -5 -15 -16 -11 -14 5 -15 4 -4 -9 7 -8
8 -15 3 -15 -11 0 -9 -42 3 -61 4 -8 3 -9 -4 -5 -7 4 -12 2 -12 -4 0 -6 -4 -9
-9 -5 -11 6 -7 -28 5 -47 5 -7 2 -9 -9 -5 -11 4 -14 2 -10 -8 3 -8 10 -12 16
-8 6 4 7 1 3 -6 -5 -7 -14 -10 -20 -8 -7 3 -13 -1 -13 -9 0 -7 5 -10 11 -7 6
3 6 0 -1 -7 -8 -9 -9 -19 -2 -32 5 -10 6 -17 2 -16 -4 2 -10 -2 -12 -7 -2 -6
-11 -15 -19 -21 -12 -9 -12 -13 -2 -19 9 -5 11 -4 6 3 -4 7 -3 12 2 12 6 0 9
-11 8 -24 -1 -16 -6 -22 -16 -18 -12 4 -12 2 -3 -8 8 -9 9 -19 2 -32 -5 -10
-6 -18 -2 -17 4 1 15 1 23 0 13 -1 13 -2 0 -11 -9 -6 -10 -10 -3 -10 6 0 15 5
18 10 3 6 19 10 36 10 16 0 29 4 29 10 0 5 3 9 8 9 26 -4 62 3 57 11 -4 7 3 7
20 0 20 -8 27 -7 31 5 4 8 10 12 15 9 6 -3 17 0 26 8 14 11 16 11 8 -2 -6 -12
-5 -13 6 -2 7 6 23 12 36 12 13 0 23 4 23 9 0 6 9 8 20 6 11 -2 20 0 20 6 0 5
3 8 8 7 17 -4 98 15 104 26 6 8 8 7 8 -2 0 -9 5 -10 18 -4 9 5 34 12 55 16 20
4 37 12 37 19 0 7 4 6 10 -3 7 -11 10 -11 10 -2 0 7 5 10 10 7 6 -3 10 0 10 7
0 9 3 9 10 -2 6 -9 10 -10 10 -3 0 6 9 10 20 8 11 -2 20 0 20 4 0 4 7 8 15 9
8 1 22 3 30 4 8 1 15 6 15 12 0 6 5 4 10 -4 5 -8 10 -10 10 -4 0 7 7 15 16 18
10 4 13 2 8 -7 -6 -9 -4 -9 7 -1 8 6 22 10 32 9 9 -2 17 2 17 8 0 5 3 7 7 4 3
-4 12 -2 20 4 10 9 13 8 13 -2 0 -11 2 -11 10 1 5 8 10 11 10 6 0 -5 7 -3 16
5 8 7 28 13 44 14 16 1 35 7 44 14 8 7 19 10 23 8 5 -3 9 8 9 24 1 16 -2 27
-6 24 -4 -3 -14 3 -21 12 -10 12 -10 14 -1 9 6 -4 12 -5 12 -2 0 3 -12 12 -27
20 -24 13 -25 15 -8 16 l20 1 -20 8 c-12 5 -23 4 -28 -3 -5 -7 -7 -3 -4 10 3
15 0 21 -12 20 -9 0 -15 5 -14 12 2 6 -4 12 -13 12 -9 0 -12 5 -8 12 5 8 2 9
-9 5 -9 -3 -19 -1 -23 5 -4 7 -3 8 4 4 7 -4 12 -3 12 3 0 9 -38 27 -51 23 -3
0 -5 9 -5 21 1 12 -2 28 -7 35 -6 8 -5 12 3 12 10 0 10 3 1 14 -9 11 -9 16 0
22 8 4 9 3 5 -4 -4 -7 -3 -12 2 -12 4 0 14 16 22 35 7 19 17 32 21 29 4 -2 6
7 5 21 -2 13 1 22 5 19 5 -3 9 0 9 7 0 6 8 18 17 25 15 11 15 15 5 22 -11 7
-9 10 5 14 11 3 20 13 20 22 0 10 -6 15 -14 12 -8 -3 -11 -1 -8 4 3 6 13 10
21 10 9 0 12 5 8 12 -5 7 -2 9 7 6 11 -4 14 2 13 21 0 14 6 32 15 39 14 11 14
11 -4 6 -19 -5 -19 -5 -2 9 9 8 17 21 17 30 0 8 -8 18 -17 20 -13 3 -12 5 5 6
13 0 20 6 17 11 -3 6 2 10 12 11 10 0 13 3 6 6 -7 2 -13 9 -13 14 0 6 4 8 8 5
5 -3 9 1 9 9 0 8 -4 12 -8 9 -4 -2 -11 1 -15 7 -4 8 -3 9 5 5 6 -4 14 0 17 8
3 9 9 14 13 12 3 -2 6 18 6 44 0 27 -4 46 -9 42 -5 -3 -6 2 -3 12 4 10 7 20 7
22 0 3 6 2 13 -2 9 -6 9 -5 -1 8 -10 12 -10 17 1 27 8 6 17 8 20 4 4 -3 7 -3
7 1 0 3 -10 11 -22 16 -21 8 -21 9 -3 10 16 0 17 2 6 9 -8 5 -16 17 -17 25 -1
9 2 14 7 10 5 -3 6 -11 3 -17 -4 -7 -3 -8 1 -4 13 11 15 37 4 37 -6 0 -5 8 1
20 6 12 7 20 1 20 -5 0 -8 8 -6 18 1 9 8 16 14 15 20 -5 12 7 -11 17 -21 8
-21 9 -3 10 16 0 17 2 6 9 -8 5 -16 17 -17 25 -1 9 2 14 7 10 5 -3 6 -11 3
-17 -4 -7 -3 -8 1 -4 13 11 15 37 4 37 -6 0 -5 8 1 20 6 12 7 20 1 20 -5 0 -8
8 -6 18 1 9 8 16 15 14 6 -1 9 2 5 8 -3 5 -13 10 -21 10 -8 0 -14 5 -14 11 0
6 7 9 14 6 10 -4 13 -1 9 8 -3 8 -9 12 -15 9 -5 -3 -8 2 -6 12 2 12 -2 18 -11
16 -12 -3 -12 0 -2 12 7 9 10 23 7 33 -4 9 -1 20 6 25 10 6 9 8 -4 8 -9 0 -20
5 -24 12 -5 7 -3 8 7 3 12 -8 12 -6 0 8 -11 14 -11 17 0 17 10 1 9 3 -3 10
-10 7 -14 17 -10 32 4 15 2 19 -7 13 -10 -6 -11 -3 -2 14 9 16 9 21 0 21 -7 0
-9 3 -6 7 4 3 -1 12 -11 20 -9 8 -11 12 -4 8 6 -3 12 -1 12 4 0 6 -5 11 -11
11 -8 0 -7 5 1 15 11 13 10 14 -5 9 -14 -6 -16 -3 -10 14 5 18 2 22 -15 22
-19 0 -20 1 -6 16 17 17 20 25 9 23 -29 -5 -36 2 -17 16 19 15 19 15 0 8 -15
-5 -18 -3 -13 10 3 9 1 19 -5 23 -7 5 -8 2 -3 -6 5 -9 4 -11 -4 -6 -6 4 -9 11
-6 16 8 13 -6 41 -18 33 -6 -4 -8 0 -4 10 3 10 2 17 -4 17 -6 0 -8 3 -6 8 6
10 -30 42 -39 34 -5 -4 -2 1 5 11 12 15 9 21 -11 18 -4 0 -4 7 -1 16 5 12 3
14 -8 8 -11 -7 -11 -5 1 10 9 11 10 16 3 11 -8 -4 -13 -1 -13 9 0 9 -4 13 -10
10 -6 -3 -10 3 -10 14 0 12 -4 21 -10 21 -5 0 -10 8 -10 18 0 14 -2 15 -10 2
-8 -12 -10 -11 -10 8 0 12 -5 22 -11 22 -5 0 -7 5 -4 10 3 6 -1 10 -9 10 -9 0
-16 9 -16 21 0 11 -4 17 -10 14 -5 -3 -10 3 -10 14 0 12 -4 21 -8 21 -5 0 -22
12 -38 26 -16 15 -23 23 -16 19 11 -6 12 -3 3 14 -7 11 -14 21 -17 21 -3 0 -2
-6 2 -12 6 -10 5 -10 -8 -1 -8 7 -17 10 -21 7 -3 -3 -3 4 0 17 4 15 3 20 -5
15 -7 -4 -12 -2 -12 4 0 6 -4 8 -10 5 -5 -3 -10 1 -10 10 0 11 -5 15 -14 12
-10 -4 -13 0 -11 14 2 11 1 18 -3 16 -10 -5 -42 30 -34 38 4 4 2 6 -3 5 -22
-5 -35 1 -35 15 0 8 -6 14 -12 13 -7 -2 -12 2 -11 9 2 8 -4 10 -14 6 -9 -4
-14 -2 -10 3 3 6 -3 16 -15 23 -16 10 -19 10 -12 -1 6 -10 4 -10 -9 1 -9 7
-17 23 -17 35 0 17 -2 18 -10 6 -9 -13 -10 -13 -10 0 0 13 -1 13 -10 0 -8 -13
-10 -12 -10 3 0 10 -8 21 -17 24 -26 10 -43 29 -35 39 4 5 -1 2 -10 -5 -15
-11 -18 -11 -18 2 0 8 -9 17 -21 20 -12 3 -18 10 -15 15 4 6 -3 8 -16 4 -13
-3 -19 -1 -15 5 4 6 0 14 -9 17 -10 4 -13 2 -9 -7 4 -6 -3 -1 -15 13 -12 14
-19 20 -16 13 5 -8 0 -8 -18 0 -14 7 -23 14 -20 16 8 9 -18 30 -32 24 -7 -3
-17 2 -20 11 -3 9 -12 16 -20 16 -8 0 -14 5 -14 11 0 6 -7 9 -15 6 -8 -4 -17
-1 -21 5 -5 7 -2 8 7 3 8 -5 11 -4 6 0 -7 8 -20 11 -64 17 -7 1 -13 5 -13 10
0 4 -7 8 -15 8 -8 0 -15 5 -15 11 0 5 -4 8 -9 4 -5 -3 -12 -1 -16 4 -3 5 -14
8 -25 6 -12 -2 -18 0 -15 6 4 5 -1 9 -10 9 -10 0 -13 5 -9 13 4 6 4 9 -1 5 -4
-4 -15 -2 -23 5 -13 10 -14 9 -7 -3 8 -13 6 -13 -8 -2 -9 8 -21 11 -27 7 -6
-4 -9 -1 -8 7 2 8 -4 12 -16 10 -11 -2 -25 2 -30 10 -6 8 -21 14 -33 15 -41 2
-44 3 -37 14 4 7 0 9 -14 5 -13 -4 -22 -1 -25 9 -4 8 -13 12 -22 9 -8 -4 -15
-1 -15 6 0 10 -3 10 -14 1 -10 -8 -15 -9 -18 -1 -2 6 -13 12 -26 13 -12 0 -22
4 -22 7 0 3 -12 7 -26 8 -14 1 -31 5 -37 9 -6 4 -25 8 -41 10 -17 2 -34 7 -39
12 -5 5 -16 7 -25 4 -10 -4 -13 -2 -8 5 5 8 2 10 -8 6 -10 -4 -16 -1 -16 7 0
12 -2 12 -9 0 -5 -8 -11 -9 -15 -3 -3 5 -19 8 -36 6 -17 -2 -29 0 -26 4 3 5
-5 8 -17 7 -12 -1 -26 0 -32 4 -5 3 -19 6 -30 7 -33 3 -74 12 -86 20 -8 4 -9
3 -5 -4 5 -8 -1 -11 -18 -10 -15 1 -26 5 -26 9 0 4 -19 7 -42 8 -87 5 -115 8
-128 16 -9 6 -11 4 -5 -5 6 -10 4 -11 -6 -4 -18 12 -479 14 -501 2 -10 -5 -18
-5 -18 0 0 5 -7 9 -15 9 -8 0 -15 -3 -15 -7z m-2080 -1156 c0 -8 -5 -12 -10
-9 -6 4 -8 11 -5 16 9 14 15 11 15 -7z m2461 -247 c-10 -9 -11 -8 -5 6 3 10 9
15 12 12 3 -3 0 -11 -7 -18z m4649 -671 c0 -3 -4 -8 -10 -11 -5 -3 -10 -1 -10
4 0 6 5 11 10 11 6 0 10 -2 10 -4z m-200 -580 c0 -3 -4 -8 -10 -11 -5 -3 -10
-1 -10 4 0 6 5 11 10 11 6 0 10 -2 10 -4z m-1199 -843 c13 -16 12 -17 -3 -4
-10 7 -18 15 -18 17 0 8 8 3 21 -13z m-4571 -33 c0 -5 -5 -10 -11 -10 -5 0 -7
5 -4 10 3 6 8 10 11 10 2 0 4 -4 4 -10z m-830 -326 c0 -8 -19 -13 -24 -6 -3 5
1 9 9 9 8 0 15 -2 15 -3z m5644 -230 c5 -14 4 -15 -9 -4 -17 14 -19 20 -6 20
5 0 12 -7 15 -16z"/>
<path d="M2140 5049 c0 -5 5 -7 10 -4 6 3 10 8 10 11 0 2 -4 4 -10 4 -5 0 -10
-5 -10 -11z"/>
<path d="M2583 4225 c0 -8 4 -12 9 -9 5 3 6 10 3 15 -9 13 -12 11 -12 -6z"/>
<path d="M6926 3723 c-6 -14 -5 -15 5 -6 7 7 10 15 7 18 -3 3 -9 -2 -12 -12z"/>
<path d="M7166 3277 c3 -10 9 -15 12 -12 3 3 0 11 -7 18 -10 9 -11 8 -5 -6z"/>
<path d="M6620 3170 c-9 -6 -10 -10 -3 -10 6 0 15 5 18 10 8 12 4 12 -15 0z"/>
<path d="M228 3163 c7 -3 16 -2 19 1 4 3 -2 6 -13 5 -11 0 -14 -3 -6 -6z"/>
<path d="M6920 2925 c-19 -22 -8 -25 13 -3 9 10 13 18 8 18 -5 0 -14 -7 -21
-15z"/>
<path d="M4060 2649 c0 -5 5 -7 10 -4 6 3 10 8 10 11 0 2 -4 4 -10 4 -5 0 -10
-5 -10 -11z"/>
</g>
</svg>
